<?xml version="1.0" encoding="UTF-8" standalone="no"?>
<svg
   xmlns:dc="http://purl.org/dc/elements/1.1/"
   xmlns:cc="http://creativecommons.org/ns#"
   xmlns:rdf="http://www.w3.org/1999/02/22-rdf-syntax-ns#"
   xmlns:svg="http://www.w3.org/2000/svg"
   xmlns="http://www.w3.org/2000/svg"
   viewBox="0 0 1165.0533 429.44"
   height="429.44"
   width="1165.0533"
   xml:space="preserve"
   version="1.1"
   id="svg2"><metadata
     id="metadata8"><rdf:RDF><cc:Work
         rdf:about=""><dc:format>image/svg+xml</dc:format><dc:type
           rdf:resource="http://purl.org/dc/dcmitype/StillImage" /></cc:Work></rdf:RDF></metadata><defs
     id="defs6"><clipPath
       id="clipPath18"
       clipPathUnits="userSpaceOnUse"><path
         id="path20"
         d="M 0,3220.8 0,0 l 8737.86,0 0,3220.8 -8737.86,0 z" /></clipPath></defs><g
     transform="matrix(1.3333333,0,0,-1.3333333,0,429.44)"
     id="g10"><g
       transform="scale(0.1)"
       id="g12"><g
         id="g14"><g
           clip-path="url(#clipPath18)"
           id="g16"><path
             id="path22"
             style="fill:#0a4261;fill-opacity:1;fill-rule:nonzero;stroke:none"
             d="m 3474.49,511.73 100.04,0 0,-202.558 343.42,0 0,202.558 100.14,0 0,-511.73 -100.14,0 0,220.738 -343.42,0 0,-220.738 -100.04,0 0,511.73" /><path
             id="path24"
             style="fill:#0a4261;fill-opacity:1;fill-rule:nonzero;stroke:none"
             d="m 4213.98,511.73 458.73,0 0,-85.96 -358.68,0 0,-118.77 309.18,0 0,-86.059 -309.18,0 0,-134.8707 367.22,0 0,-86.0703 -467.27,0 0,511.73" /><path
             id="path26"
             style="fill:#0a4261;fill-opacity:1;fill-rule:nonzero;stroke:none"
             d="m 5197.88,203.352 -107.26,227.957 -107.25,-227.957 214.51,0 z m -164.27,308.378 114.03,0 L 5395.75,0 l -105.09,0 -53.65,117.879 -294.8,0 L 4888.11,0 4781.7,0 5033.61,511.73" /><path
             id="path28"
             style="fill:#0a4261;fill-opacity:1;fill-rule:nonzero;stroke:none"
             d="m 5537.09,511.73 100,0 0,-422.8003 370.44,0 0,-88.9297 -470.44,0 0,511.73" /><path
             id="path30"
             style="fill:#0a4261;fill-opacity:1;fill-rule:nonzero;stroke:none"
             d="m 6201.2,425.77 -229.19,0 0,85.96 557.73,0 0,-85.96 -228.65,0 0,-425.77 -99.89,0 0,425.77" /><path
             id="path32"
             style="fill:#0a4261;fill-opacity:1;fill-rule:nonzero;stroke:none"
             d="m 6679.29,511.73 99.89,0 0,-202.558 343.57,0 0,202.558 99.99,0 0,-511.73 -99.99,0 0,220.738 -343.57,0 0,-220.738 -99.89,0 0,511.73" /><path
             id="path34"
             style="fill:#0a4261;fill-opacity:1;fill-rule:nonzero;stroke:none"
             d="m 1331.65,1501.49 c 0,322.25 -229.74,473.08 -535.4,473.08 -305,0 -535.066,-150.83 -535.066,-473.08 0,-378.4 285.078,-481.21 535.066,-481.21 250.16,0 535.4,102.81 535.4,481.21 z m -535.4,696.93 c 588.5,0 796.42,-345.71 796.42,-711.88 0,-277.12 -163.61,-690.77 -796.42,-690.77 C 163.441,795.77 0,1209.42 0,1486.54 c 0,366.17 207.754,711.88 796.25,711.88" /><path
             id="path36"
             style="fill:#0a4261;fill-opacity:1;fill-rule:nonzero;stroke:none"
             d="m 3472.82,828.629 261.449,0 0,1336.94 -261.449,0 0,-1336.94 z" /><path
             id="path38"
             style="fill:#0a4261;fill-opacity:1;fill-rule:nonzero;stroke:none"
             d="m 5311.82,1501.49 c 0,322.25 -230.13,473.08 -535.13,473.08 -305.16,0 -534.91,-150.83 -534.91,-473.08 0,-378.4 284.92,-481.21 534.91,-481.21 250.48,0 535.13,102.81 535.13,481.21 z m -535.13,696.93 c 588.34,0 795.93,-345.71 795.93,-711.88 0,-277.12 -163.39,-690.77 -795.93,-690.77 -632.48,0 -795.92,413.65 -795.92,690.77 0,366.17 207.92,711.88 795.92,711.88" /><path
             id="path40"
             style="fill:#0a4261;fill-opacity:1;fill-rule:nonzero;stroke:none"
             d="m 5802.58,2165.57 275.81,0 893.49,-965.58 0,965.58 250.48,0 0,-1336.941 -239.45,0 -929.85,1000.181 0,-1000.181 -250.48,0 0,1336.941" /><path
             id="path42"
             style="fill:#0a4261;fill-opacity:1;fill-rule:nonzero;stroke:none"
             d="m 2796.62,1372.7 c 196.9,11.3 373.38,147.46 373.38,393.79 0,327.32 -228.49,399.08 -544.13,399.08 l -803.62,0 0,-1336.941 260.85,0 0,1119.641 503.69,0 c 213.82,0 321.92,-30.78 321.92,-187.02 0,-158.37 -108.1,-189.58 -321.92,-189.58 l -243.33,0 541.46,-743.041 321.59,0 -409.89,544.071" /><path
             id="path44"
             style="fill:#f0401e;fill-opacity:1;fill-rule:nonzero;stroke:none"
             d="m 7497.07,2734.24 c -148.92,-32.95 -421.4,-69.63 -600.12,-101.22 -92.01,-16.43 -166.01,-33.67 -175.89,-40.5 111.77,-15.44 329.72,0 511.99,-38.41 84.15,-17.85 290.32,-48.52 321.1,-267.68 14.84,-365.46 32.2,-887.49 54.24,-1173.34 94.03,538.08 128.14,1039.53 205.19,1062.67 120.06,37.11 761.33,-485.68 924.28,-615.95 -620.42,742.67 -768.86,832.76 -761,927.34 15.61,180.95 480.67,280.44 713.8,367.37 -155.91,16.37 -489.95,-50.09 -698.19,-63.95 -101.72,-7.54 -174.14,-6.55 -181.94,54.51 -16.59,122.62 -27.23,250.65 -48.79,372.45 -51.02,36.02 -76.51,-234.39 -122.29,-376.6 -21.18,-69.68 -55.34,-80.71 -142.38,-106.69 l 0,0" /></g></g></g></g></svg>